<svg style="fill-rule:evenodd;clip-rule:evenodd;stroke-linecap:round;stroke-linejoin:round;" xmlns:vectornator="http://vectornator.io" xmlns:xlink="http://www.w3.org/1999/xlink" xmlns="http://www.w3.org/2000/svg" xml:space="preserve" version="1.1" viewBox="0 0 1024 1024">
<style>
    path {
      fill: white;
    }
  </style>
<defs/>
<g id="Layer 1" vectornator:layerName="Layer 1">
<g opacity="1">
<path d="M480.325+79.6169C234.338+79.617+34.9509+279.061+34.9509+525.048C34.9509+771.035+234.338+970.422+480.325+970.422C726.312+970.422+925.699+771.035+925.699+525.048C925.699+493.872+922.449+463.474+916.354+434.104C891.924+442.357+865.846+446.982+838.63+446.982C837.091+446.982+835.604+446.783+834.072+446.754C839.637+471.995+842.79+498.135+842.79+525.048C842.79+725.221+680.498+887.456+480.325+887.456C280.153+887.456+117.86+725.221+117.86+525.048C117.86+324.876+280.152+162.583+480.325+162.583C521.085+162.583+560.115+169.606+596.683+182.014C599.25+153.449+606.916+126.409+618.507+101.555C574.992+87.3595+528.58+79.6169+480.325+79.6169Z" opacity="1" fill="#ffffff"/>
<path d="M480.325+264.468C336.427+264.468+219.802+381.15+219.802+525.048C219.802+578.891+236.158+628.885+264.134+670.41C333.648+660.794+428.259+636.369+508.246+579.979C592.996+520.232+636.377+433.888+662.84+371.196C644.054+351.467+628.419+328.697+617.083+303.501C577.305+278.894+530.535+264.468+480.325+264.468ZM734.979+471.428C706.68+537.315+643.872+612.375+550.242+660.894C463.102+706.051+369.336+718.858+298.608+711.551C345.549+757.295+409.594+785.571+480.325+785.571C624.224+785.572+740.848+668.947+740.848+525.048C740.848+506.62+738.673+488.743+734.979+471.428Z" opacity="1" fill="#ffffff"/>
<path d="M688.192+204.006C688.192+120.927+755.541+53.5777+838.621+53.5777C921.7+53.5777+989.049+120.927+989.049+204.006C989.049+287.085+921.7+354.435+838.621+354.435C755.541+354.435+688.192+287.085+688.192+204.006Z" opacity="1" fill="#ffffff"/>
</g>
</g>
</svg>

