<?xml version="1.0" encoding="utf-8"?>
<!-- Generator: Adobe Illustrator 25.2.1, SVG Export Plug-In . SVG Version: 6.00 Build 0)  -->
<svg version="1.1" id="Layer_1" xmlns="http://www.w3.org/2000/svg" xmlns:xlink="http://www.w3.org/1999/xlink" x="0px" y="0px"
	 viewBox="0 0 700 700" style="enable-background:new 0 0 700 700;" xml:space="preserve">
<polygon points="350,6.6 350,6.6 350,6.6 "/>
<path d="M483.2,251.1h-9.1V128.9C474.1,61.5,418.4,6.6,350,6.6c-68.4,0-124.1,54.9-124.1,122.4V193h57.6v-64.8
	c0-36.3,29.7-65.6,66.4-65.6h0c36.8,0,66.4,29.2,66.4,65.6V251H283.6h-57.6v0h-9.1c-20,0-36.4,16.1-36.4,35.8v230.8
	c0,19.7,16.4,35.8,36.4,35.8h266.4c20,0,36.4-16.1,36.4-35.8V286.8C519.5,267.1,503.2,251.1,483.2,251.1z"/>
</svg>
