<?xml version="1.0" encoding="UTF-8"?>
<svg width="712" height="1200" version="1.1" xmlns="http://www.w3.org/2000/svg" xmlns:xlink="http://www.w3.org/1999/xlink">
 <title>Zvezda Rocket Patch</title>
 <linearGradient id="a" x1="195.25" x2="201.01" y1="-232.61" y2="-232.61" gradientUnits="userSpaceOnUse" xlink:href="#b"/>
 <linearGradient id="b">
  <stop stop-color="#333" offset="0"/>
  <stop stop-color="#fff" offset=".5"/>
  <stop stop-color="#333" offset="1"/>
 </linearGradient>
 <linearGradient id="c" x1="202.84" x2="205.42" y1="-207.33" y2="-207.33" gradientUnits="userSpaceOnUse" xlink:href="#b"/>
 <linearGradient id="d" x1="190.84" x2="193.42" y1="-207.33" y2="-207.33" gradientUnits="userSpaceOnUse" xlink:href="#b"/>
 <g transform="matrix(8.9955 0 0 8.9955 -1426.3 2562.6)">
  <path transform="matrix(2.6796 0 0 2.6796 131.76 -631.37)" d="m24.805 129.52a1.0293 1.0293 0 0 0-1.0059.68946l-13.531 38.596a1.0293 1.0293 0 0 0 .41406 1.2051l13.531 8.7148a1.0293 1.0293 0 0 0 1.1133 0l13.531-8.7148a1.0293 1.0293 0 0 0 .41406-1.2051l-13.531-38.596a1.0293 1.0293 0 0 0-.93555-.68946z" fill="#0c3182"/>
  <path transform="matrix(.38066 0 0 .38066 139.96 -240.82)" d="m174.32 147.43c-1.5995.0264 1.2541.93953 0 0zm-.43484.24848c.36321.54961 1.7567.55339 0 0zm5.7149.18636c-.75632.13335-.82281.17929-.86965.55905 1.2807.0529.81302.47668-.24847-.0621-.10901.0475-2.0809.13852-1.3841.43793.81188.18752 2.6227 1.142 2.8128.86653-.6157-.17563.73375.0873 1.2294-.16165.71779-.28733.53598-.33005-.0491-.58376-.98122-.27062-.70169-.49117-1.2424-.80753l-.13343-.13341zm.43483 1.9878c-.0117.0868.36251.0789 0 0zm.13198.0621c1.1276.72554 1.0821.18288 0 0zm.92403.43482c-1.603-.5128-3.1319-1.4232-4.7831-1.6772-.60753.4789-1.33.88753-.62118 1.3666 1.7335.22597.15223.50337-.21351.47238-.71405.88512-.40217 1.2135-.23937 1.2095-.27623.14378-1.7332-.88999-2.5557-.39502-.35697.78085-1.2575.83266-1.7712.68453-.63235-.77748-1.4288.50244-1.1836.32695-.31311-.21231-.15451-.32125-1.1577-.15585-1.0319-.17647-.67031.82978-.33313.6528.39984.44641.62145 1.006-.37619.83815-.82973.34604-1.3739.16787-1.0349 1.0031-.5584.13505-2.4063-1.016-1.4528-.60037-.11269-.2492-.95728-1.0858-1.4843-.74398-1.1447-.25772-.77031.28123-.99389.62119-.53467.42584-1.516-.22082-2.2466-.0747-1.0055.61907-.3496.64677-1.0457.13677-1.4179-.14205-.22397.0314-1.3009.59204-1.3085.80964-.60718-.0368.12069-.65415.85659-.52017.15532-1.8284.55906-1.2424-.34316-.58666-.82027-.70605-1.864-.63066-.49839.30228-.9124-.26253-1.1797-.54958-1.0794.24746-.52538 1.2906-1.1571 1.0496.21414.42366-1.079.23898-1.5696.31552.29803.004-1.1037.48992-1.9248.62507-.0873.55333-.51098.30039-.0695.99144-.75459.78214.16181.11471-.55798.004-.97981-.12539-2.6492.35551-1.3056 1.1768.81775.31565-.29921 2.3801.0621 1.3666-1.0053.17499.84584-.98744-.50611-1.0652-1.0066-1.1338-.9679.16922-1.7288-.26441.26836.82447.85809.99736-.56041.45994.62356-1.3853.44769-1.0017-.6306-.29695.34356.58208-1.2195 1.9575-.11481 2.0984 1.6864-.42899.1656 1.3844 1.2424 1.4287-1.1854.26932-.10408-2.1626-1.6662-1.0293.12683 1.0355-1.1911 1.397-1.8124 1.8368-1.587-.42216-.98643-.77044-.19753-.38067.16407-.48393 1.9479-.94481 1.3905-1.7154.11363-.80911.77659-1.7379.79478-2.3143 1.3752-1.1957-1.0811-1.4255-1.4587-.21292-.92317.087-.99301 1.3315-1.2745 1.4553.94291.7792-.13829 1.6148-.73271.38951-.78373-.7715-1.6314-.99838-2.0626-1.5076.14613.59488.48735 1.2098-.55906 1.615.0815-.7648-.58683-.32571-1.6197-.55906-1.0505.46678-.76747-.34815.005-.43483-1.1336.17574-1.1326.0307-2.4172.21014-.64126-.15934-2.0308 1.2541-1.9736-.0565 1.0152.0756 1.4298-1.0475.57059-1.0235-.66452.69484-1.0558 1.2712-1.8947 1.8638.22553-.96304-1.0775-.35816-1.8014-.31059-.61537 1.7032-.91979-.38488-1.5079.00075.0211.99434-.95938 1.0682-.85261.0612.65766-.79592 1.4843-1.2956 1.4908-2.0499.40986-.76025.0364 1.0651.93177 1.4287.95657.21155 2.1478-.17597 2.12-1.1691-.0255-.22099-.1498-2.1351-.64672-1.7106.42292-.59553.34035-.49964-.293-.72315-1.0715.10881-1.5169.45722-2.1046 1.2399-1.1281.15121-1.4992 1.4462-2.5542 1.6796-.51364.57955-1.0798 1.3383-1.722 1.9283-.75829.50786-2.8757.56131-2.6355 1.0004.21925 1.0182-.78138.53678-1.4196.42564.003-1.1069-2.28-.26195-1.6151.24848-1.1387.87951-1.4989 1.0541-1.4287-.0622-1.0849.28075-1.7771 1.2422-2.6091 1.8635-.75697-.9195-.66707.64892-.0457 1.0527-.38436.89917-1.4459 1.3078-1.9597 1.9911-.52314.56053-.97059 1.4946-2.0767 1.5752-.45814.5649-1.9189.86818-1.1937 1.7074-.26445 1.1508 1.7656.20086.98976 1.3142.0194 1.137-1.2583 1.7125-1.3443 2.6535.66183.43076 1.2817-.56902 2.3309-.53902.34155.28189.14455.33662-.24111.4945 1.1902.85636-.20683.82952-.19371 1.2399-.25585 1.0527-.28537 1.3313.97537.97194 1.4466.52839-.48215-.46084.51007-1.2642.0819.13658.78509-.20133 1.6899-.0159.72208-.15512 1.6968.31553.49694.37272-.70215.27639-.49172.68083-1.3641 1.1729-.85591-.58966-.52157.45998-.37517 1.1301.33805.84373.27044 1.5927.55906 2.3558.25638.97783-1.0547 1.7666.18636 1.8014.70217.7261-.79932 1.6408.21736 2.1739-.13931 1.1578.61099 1.9544 1.5489 1.1981 1.5094-.56483-.55308 1.5925.64608 1.2297.39732-.63671 1.4409-1.6009 1.8738-1.7442-.80335-.69109-.25085-2.1303-.48981-3.121.69721-1.2851.42489-.50131.36558-1.9105 1.0026-.49651 1.077-1.2028 2.0499-.86965.3589-.5589 1.3877-.52778 2.1741-.74541.73116.49951 1.5536.63481.54071 1.6334-.0239 1.2546-1.5071-.5208-1.8142.78893-.11788.33829-1.1119-.15325-.52795 1.3047-.40435.82003 1.0719 1.0335.003 1.9183-.65373 2.0364.81868-1.1187.98604.50287.4726.98441-.18926 1.6575-.98519.88745-.51133-.50518-.88683 1.3514-.33616 1.1463-.58773.45744.0366.33133-.1903 1.3576-.76793.88216-.48504 2.1666.57559 1.0785.90567-.0483 1.7442-.24693 2.1041.58545.74922.40301 1.3449.94501 1.6253 1.8813 1.4715-.11241-.32242 1.6184.93912 1.6372.6615.89545 1.5175-.48911 2.4493-.54804.41135-.87603 1.3581-1.381 2.0853-.81856 1.0113.0972 1.1401 1.0443 2.112.37272.64327.43557 1.2359-.46711 1.9224-.97755 1.1614.26161-.2719 1.6616.55501 2.036 1.0546-.61534 1.69-.41103 2.3057-.4994 1.0018.88759.90296-1.0905.31058-1.4287-1.0028.20876-.25106-1.0934-.0732-1.5175.97774-.58028 1.336-.39533 2.123-.28389.68208-.81193 1.9144-.43048 2.7972-1.248 1.2997.0992.82928-1.3039 1.6126-1.4851.007-.93164-.50595-1.9152-.18917-2.1579.76311-.44232 1.7666.31535 1.9911-.32695-.27645-.47685.4345-2.5417 1.3689-1.6151 1.3598.6444 1.0964-.8746 1.676-1.5117.67239-.45419 1.3151-.96769 2.2346-1.0352.70616-.27078 1.0824-.92488 2.1125-1.1802.64844-.53697 1.3957-.15086 2.0809.124.41324.90297 1.7402.12188 2.3916.62142 1.3022-.5203-.30328-1.3394.49695-2.1741.60466-.81917 1.7595.31089 2.7374.18057.0891.87778 1.1819 1.4478 1.9019 1.029.93043-.6076 1.8497-.0286 2.7528.0328.37961.88541 2.0169.64148 2.6711.24847 1.1603.17012 1.3099-1.7912 2.4496-1.1357 1.0196-.15852 2.0737.48717 2.8135-.59299-.53556-.64388.0648-1.7039-.0766-2.4728-1.355-.4818.12965-1.3622.83902-1.6376 1.0111.0369 1.8328.007 2.5738.6657.72989.84426 1.6105 1.6213 2.2665 2.3678.7711-.045 1.7729-.0589 2.3491.50392.44688 1.0043 1.5958.98316 1.9174-.0316.659-1.239 1.224.4231 1.2153 1.1409.17717.72831.8761 2.1784-.32813 1.9957-.81374.4682.17539 1.378.56615 2.1162-.141 1.1209.046 1.4756.34192.43148-.0149-1.3246.90568.58729 1.6415-.61277.76822-1.2566.1626-2.612.50129-3.9806-.46168-1.1721-.2561-2.4474-.62117-3.6028-.51548-.88627-1.3747-1.676-1.6398-2.7202-.54577-.89155-.85037-1.434-1.7667-1.6735-1.3586-1.1204-.71148 1.0214-.9929.32936.0316 1.0374-.85093-.53159-.74728.098.45329.0635-1.966-.13698-1.3995-.92404.1873-.91904-.0507-1.9128-.0384-2.8743.044-.70436-.70902-2.0803.58062-2.3833.302-.10328 1.6545-.63044 1.0966-.84682-.21574-.32909 1.6007-.94484 1.1181-.12424.51194.0376 1.379-1.1418.55906-1.1181-.64573-.0768-.82217-1.5417-1.4287-2.1741.40356-1.1981.98702-.12599 1.6334.14259-.36367-.82271-.16611-1.3603-1.1139-1.784-.0896-1.2592.34622.27702 1.271.64758.52058.70169.97297 1.715 1.5324 2.5949.57174.97661.31793 1.4075 1.0254 2.3124 1.4739 1.7143 3.4612 2.8576 5.1382 4.3084.44201-.16463-.55213-1.7711-1.1005-2.0722.94139-.41129-1.0177-.97193-.74541-1.8635.35996-.51469-1.5976-1.0582-1.3753-1.8368 1.0825.46092-.93257-.43729-1.1361-.94744-.45567.51317-1.1262-.7547-1.8539-1.3682-.25355-.43212-.25412-1.0541-.0465-1.0354.49382.57776-.80741-1.6117.68474-.83758-.63447-.61386-1.201-1.2875-1.5366-1.9845-1.0887-1.0727-.34379-1.0907-.86004-1.6839-.8407-.16719-1.1629-.42498-1.9892-.46638-.31086.22251-.26948.60492-.39397-.073-.43544-.0347 1.1167.0875-.0653-.63753zm-70.695 21.602c-.18454.13969.0401.0622 0 0zm32.306-12.347c-.33462.45134.57773.19878 0 0zm4.1619-4.5967c.43518-.47054-.59583-.2024 0 0zm21.431-1.4908c-.27509-.152-.32206.33648 0 0zm6.5845-2.045c.006-.0969-.334-.0819 0 0zm2.6318-2.9414c.01-.13138-.26214.06 0 0zm-.1058-.0175c-.33211-.21269-.093.16883 0 0zm-30.106-.15191c-.33956.0849-.23326.0583 0 0zm-2.9817.0621c-.0142.26924 1.5343.002 0 0zm1.2424 0-.0621.0622zm-.3727.0622c-1.5362.20932-.41378.60071.12423.0621zm1.6772 0c-1.2958.0877.0658.41641 0 0zm-.24847.24849c-.70221.14791.33064.52235 0 0zm.99389-.18636c.0335.34846.54793-.0578 0 0zm-1.4908.0621c-1.074.25665.94093.61561 0 0zm.86966 0-.0622.0621zm-2.2363.24846c-.44754.21514.26436.11103 0 0zm.86965 0c-.27151.23458.23411.0941 0 0zm1.3666 0c-.47765.20974.61672.10826 0 0zm-1.6151.0621c-.58782-.005.19445.37025 0 0zm2.2984 0c-1.0891.26515.17265.47707 0 0zm-2.8574.0622c-.47999-.0242-.0296.30535 0 0zm1.8636 0c-.73094.67904 1.1475.0419 0 0zm-.62118.0621c-1.5013.29151 1.1106.39735 0 0zm-.49695.0621c.0293.19995.27066-.14139 0 0zm21.182.12424.0621.0621zm-13.604.0621c-1.0623.51023.0154.75465 0 1.2424.69772.74935 1.8881.0943.80753-.49694-.752.29576-.0748-.13344-.55906-.62118l-.16877-.0844zm12.548 0c-.33171.32279.27814.14959 0 0zm-13.48.0621c.37076.0742.3169.0634 0 0zm-6.0876.0621c-.27911.22392.58607-.12233 0 0zm4.1619 0c-.43974.12122.44165.1691 0 0zm17.207.55906c-1.1753.13124-1.1424.65901.12424.3727.33549-.0895.003-.28863-.12424-.3727zm7.889.0621c-.91298.45766.91635.1612 0 0zm-22.922.0621c.0214.5262 1.2282-.0194 0 0zm-3.168.12419c-.13181.21372.54165.13136 0 0zm15.716.12423c.75059.55359-1.4492.1121.0564.98599.60906.37286 1.9214-.51963.71683-.64231-.21491.0291 1.5613-.20093-.28374-.2899-.16571.0359-.32594-.045-.48957-.0538zm-10.125.0621c-.73614.72932-.0901 1.3747.93177.55907-.23565-.37973-.74063-.26916-.93177-.55907zm18.387.49696c.34447.25075.13174-.10877 0 0zm-17.082.12423c-.31477-.0511.0511.31477 0 0zm7.9511 0c.32634.44722.73779.32731 0 0zm-7.7026.0621c-.59655.0245.22537.25496 0 0zm10.187.37271c.0527.58867-.0705-.01 0 0zm.55906.12424c-.46682.92827 1.9104-.008 0 0zm0 .43482c-.41203.12927.17068.22924 0 0zm-21.058-.31058c-1.0746.62751-2.1236-.0998-3.168.55906-.88856-.003-.82193.66016-2.0434.80608-.15461.9015 1.2989.30837 1.7132-.0934.81698-.28428 2.0785-.61575 3.1945-.68002.48503.0631 1.212-.59359.3037-.59171zm-5.2179 1.6772c-.89927-.005-1.1092.56501-1.9843.82823.60781.44498-.43356.9154.49349 1.2838.82905.41806.27473-.46035.86965-1.1181.0934-.63079 1.5344-.43462.62118-.99388zm15.84-1.6772-.0621.0621zm18.733.0923c.47614.13695.53647.50112 0 0zm-23.392.15627c-.36628-.0108.16378.28551 0 0zm6.0876 0c-.15148.228.44671.24343 0 0zm-4.2861.0622c-.81446.19985.22481.28478 0 0zm11.492 0c.40152.10038.88261.22065 0 0zm-11.181.31059.0621.12423zm-.24848.31059c-.57041.15964.18926.14511 0 0zm.12424 0c.0293.19996.27066-.14139 0 0zm.91914.2111c.0741.0709-.18866.18774 0 0zm7.8395.28584.12423.0621zm-13.045.0621c-.5222.10554.27571.3442 0 0zm9.2556.24848c-.37475.61892 1.0926.0539 0 0zm-7.889.18635c-.47777.25347.42752.0507 0 0zm-.6833.37271-.0622.0621zm-.80754.18635c-.0511.31478.31476-.0511 0 0zm.18635.0622c.31872.10623.16554.0552 0 0zm-3.9756.0621c-1.399.10255.2981.74017 0 0zm-7.1436.3106c-.0666.7252.59278-.0322 0 0zm9.6904.31058c-.72215.27525.52753.49164 0 0zm-.62119.31058c-.9494.35978.50734.28729 0 0zm-11.368.31059c-2.005.61263.99604.85792 0 0zm6.7087.62118c-.10624.31871-.0552.16553 0 0zm-10.871.55905.0621.12424zm-3.3544.12424c-.20966-.10651-.30798.48599 0 0zm57.024.18635c.0988 1.1185 1.0371.69993 0 0zm-42.986.12424c-.45726-.0716.0473.31227 0 0zm47.023 2.1741c.1312.33433 1.3502.54641 0 0zm.62119 0c.50076.0835.5036.0839 0 0zm-7.889.86965c-.10899.40539.35078.0343 0 0zm-67.351 2.64c.12945.0252-.0161.0609 0 0zm-1.9722 1.8325c.12175.30786-.17174-.0231 0 0zm78.331.80752c-.12602.35392.42994.2249 0 0zm-.31058.12425c-.24078.074.28922.23815 0 0zm.24847 0c.15216 1.0813.85472 1.0431 0 0zm-7.8269.24847c.44956.49755.34744 1.202 1.0422 2.031.7161.69966 1.4094 1.2999 2.0604 2.2226.49088.98553 1.3 1.6871 1.8321 2.6212 1.1408 1.9361.097.0278 1.1719.32937.73439.27182-1.0965-.83707-1.4477-1.2409-1.1149-1.1857-.20869-1.8789.37271-1.4287-1.8474-1.0277-3.0738-2.8605-4.6317-4.1994-.0427-.20233-.26658-.22344-.39987-.33516zm-2.9195.3727c.13845 1.0191 1.1139.003 0 0zm-.12423.18636c-.43148.22156.33775.31939 0 0zm11.43.49695c.0937.48374.51677.47012 0 0zm.3727.86965.0621.12423zm.49694 1.3045.0621.0621zm.18636.80754c-.045.55631.29635.59579 0 0zm.0622 1.3666c-.32736.46657.21729 1.291.0151.18134zm-.24847 1.1181c-.50665.22558.0444 2.4548-.12424.86965.0788-.16347.31798-.68803.12424-.86965zm-.24847 1.6772c-.50422.44537.20009 1.9843 0 0zm.49694.49695c-.23713.39607.37947-.0268 0 0zm-.0622.31059v.0621zm-.12424.31058.0621.0621zm-73.051 1.2424c-.10624.31871-.0552.16553 0 0zm.99389 1.056c-.30279.1543.0445.47519 0 0zm28.698 0c.12256-.0794.12782.29373 0 0zm-28.636.0621c-.14862.33411.33412-.14862 0 0zm-.99388 6.9572c-.27877.28039-.0598.65644 0 0z" fill="#5a88f0"/>
  <path d="m212.73-164.18c-1.3737-3.11-3.1326-6.7782-5.2648-10.591-5.7364-10.257-9.3345-12.927-9.3345-12.927s-3.5982 2.6698-9.3346 12.927c-2.132 3.8119-3.8911 7.4794-5.2648 10.589m-7.4237-10.752c3.4438 3.3894 10.845 9.0883 22.02 9.0883 11.174 0 18.572-5.6987 22.017-9.0883m-38.794-6.4257c2.6238 2.5825 8.2632 6.9245 16.777 6.9245 8.5134 0 14.151-4.3419 16.775-6.9245m-25.844-4.6557c1.4183 1.396 4.4666 3.743 9.0689 3.743 4.6019 0 7.649-2.347 9.0675-3.743m-9.0625-1.681v33.138m-.00094-33.14a25.434 25.434 0 0 0-24.107 17.392l24.108 15.529 24.096-15.523a25.434 25.434 0 0 0-24.097-17.398z" fill="none" stroke="#fff" stroke-linecap="round" stroke-linejoin="round" stroke-width=".53593"/>
  <path d="m161.87-178.14 36.258-103.42 36.256 103.42-36.256 23.356z" fill="none" stroke="#e9c42f" stroke-linecap="round" stroke-linejoin="round" stroke-width="2.25"/>
  <g fill="#e6e6e6">
   <path d="m197.03-237.79-2.1024 5.6711 1.9349.36569h2.531l1.9349-.36569-2.1024-5.6711z"/>
   <path d="m192.71-209.07 4.4424-7.4341v5.153l-4.4424 7.4341z"/>
   <path d="m203.55-209.07-4.443-7.4341v5.153l4.443 7.4341z"/>
  </g>
  <path d="m190.84-212.12h2.5705v8.7025h-2.5705z" fill="url(#d)"/>
  <path d="m205.42-212.12h-2.5705v8.7025h2.5705z" fill="url(#c)"/>
  <path transform="matrix(-2.3737 0 0 2.3737 256.65 -575.94)" d="m27.548 157.76v5.601m-.72929-5.601v5.4238m-5.0554-5.4238v5.601m.72929-5.601v5.4238" fill="none" stroke="#fff" stroke-linecap="round" stroke-linejoin="round" stroke-width=".11289"/>
  <g fill="#fff">
   <g transform="matrix(.16678 0 0 .16678 196.2 -239.92)">
    <path d="m74.934 44.43 3.573 19.377-3.573 19.377-3.573-19.377z"/>
    <path d="m94.311 63.807-19.377 3.5735-19.377-3.5735 19.377-3.5735z"/>
   </g>
   <g transform="matrix(.16678 0 0 .16678 172.07 -219.34)">
    <path d="m74.934 44.43 3.573 19.377-3.573 19.377-3.573-19.377z"/>
    <path d="m94.311 63.807-19.377 3.5735-19.377-3.5735 19.377-3.5735z"/>
   </g>
   <g transform="matrix(.16678 0 0 .16678 203.54 -213.66)">
    <path d="m74.934 44.43 3.573 19.377-3.573 19.377-3.573-19.377z"/>
    <path d="m94.311 63.807-19.377 3.5735-19.377-3.5735 19.377-3.5735z"/>
   </g>
   <g transform="matrix(.10797 0 0 .10797 190.04 -274.14)">
    <path d="m74.934 44.43 3.573 19.377-3.573 19.377-3.573-19.377z"/>
    <path d="m94.311 63.807-19.377 3.5735-19.377-3.5735 19.377-3.5735z"/>
   </g>
   <g transform="matrix(.10797 0 0 .10797 186.81 -265.22)">
    <path d="m74.934 44.43 3.573 19.377-3.573 19.377-3.573-19.377z"/>
    <path d="m94.311 63.807-19.377 3.5735-19.377-3.5735 19.377-3.5735z"/>
   </g>
   <g transform="matrix(.10797 0 0 .10797 195.68 -257.73)">
    <path d="m74.934 44.43 3.573 19.377-3.573 19.377-3.573-19.377z"/>
    <path d="m94.311 63.807-19.377 3.5735-19.377-3.5735 19.377-3.5735z"/>
   </g>
   <g transform="matrix(.10797 0 0 .10797 198.04 -246.72)">
    <path d="m74.934 44.43 3.573 19.377-3.573 19.377-3.573-19.377z"/>
    <path d="m94.311 63.807-19.377 3.5735-19.377-3.5735 19.377-3.5735z"/>
   </g>
   <g transform="matrix(.10797 0 0 .10797 204.22 -223.09)">
    <path d="m74.934 44.43 3.573 19.377-3.573 19.377-3.573-19.377z"/>
    <path d="m94.311 63.807-19.377 3.5735-19.377-3.5735 19.377-3.5735z"/>
   </g>
  </g>
  <path d="m198.13-260.93-3.1483 56.662s1.3645.51415 3.1483.51415 3.1462-.51415 3.1462-.51415z" fill="url(#a)"/>
  <path d="m195.57-230.42-2.2161 11.77m7.3266-11.77 2.2161 11.77" fill="none" stroke="#fff" stroke-linecap="round" stroke-width=".26796"/>
  <g transform="matrix(.10797 0 0 .10797 180.07 -236.02)" fill="#fff">
   <path d="m74.934 44.43 3.573 19.377-3.573 19.377-3.573-19.377z"/>
   <path d="m94.311 63.807-19.377 3.5735-19.377-3.5735 19.377-3.5735z"/>
  </g>
  <g transform="matrix(.16678 0 0 .16678 179.83 -256.52)" fill="#fff">
   <path d="m74.934 44.43 3.573 19.377-3.573 19.377-3.573-19.377z"/>
   <path d="m94.311 63.807-19.377 3.5735-19.377-3.5735 19.377-3.5735z"/>
  </g>
  <path d="m195.04-205.27-.0214.36835c.40715.1865 1.5908.46456 3.1129.46456 1.5222 0 2.7058-.27809 3.1129-.46456l-.0214-.36835c-.13854.0697-1.4088.4885-3.0921.4885-1.6817 0-2.9514-.41781-3.0921-.4885z" fill="#4d4d4d"/>
  <g transform="matrix(2.6796 0 0 2.6796 131.76 -631.37)" fill="#e9c42f" stroke-width=".26458">
   <path d="m19.242 165.16-.78099-.0911q-.04683.31204-.15446.55707-.10322.2415-.36775.45297-.1984.1586-.42585.21758-.22657.0511-.45134.0139-.22036-.0406-.42748-.16411-.20711-.12348-.36572-.32188l-.007-.009q-.1586-.19839-.22993-.42321-.07485-.22921-.06155-.45664t.11651-.43278q.10762-.20889.3016-.36396.23367-.1868.49285-.24225.26359-.059.57476-.0404l.03379-.8436q-.1904-.0212-.38434-.0107t-.38877.0651q-.19483.0546-.40379.16382-.20455.10571-.42058.27841-.35711.28549-.55029.64949-.1967.35959-.2321.7492-.03892.38521.07466.77135.11006.38174.3744.7124l.007.009q.26434.33066.616.52648t.73598.24268q.3808.0424.77047-.0667.38967-.10917.72914-.38056.22485-.17975.37389-.36394.15256-.17977.24607-.37015.09439-.1983.14118-.40192.04679-.20361.06362-.42663z"/>
   <path d="m24.045 163.74-.66524-.41915q-.17689.26129-.37971.43589-.19732.17332-.52721.24994-.24741.0575-.47805.0125-.22642-.0517-.41318-.18217-.18126-.13174-.31482-.33251-.13356-.20076-.19103-.44818l-.0026-.011q-.05747-.24741-.02481-.481.03139-.23907.14152-.4385.11013-.19942.29185-.34014.18722-.142.42913-.19819.2914-.0677.54914-.006.26324.0605.53591.21161l.3945-.74644q-.1626-.1013-.34209-.1755t-.3788-.10903q-.19932-.0348-.43495-.0265-.23014.007-.49954.0697-.44534.10345-.77668.34846-.33261.23951-.53266.57572-.20133.3307-.26549.72806-.06544.39186.03035.80421l.0026.011q.09578.41235.32852.74074.23274.32839.55922.5365.32521.2026.72384.27226.39863.0697.82198-.0287.2804-.0651.49433-.16698.2152-.0964.3817-.22774.17072-.13817.30079-.30166.13007-.16349.24148-.35742z"/>
   <path d="m28.989 164.53-.42076-.66424q-.27196.16-.53011.23057-.25264.0718-.58346-7e-4-.24812-.0544-.4371-.19399-.18226-.14394-.2949-.34196-.10712-.19682-.14151-.43549-.03439-.23866.01997-.48678l.0024-.011q.05436-.24811.18417-.44503.13102-.20242.31613-.33522t.40965-.18184q.23005-.0478.47266.005.29222.064.49843.23054.21172.16773.39309.42126l.67684-.50467q-.10334-.16132-.23356-.30542-.13022-.14409-.29526-.26114-.16504-.11706-.38144-.21069-.21088-.0924-.48105-.15162-.44661-.0978-.85106-.0189-.40324.0735-.72829.29116-.32384.21219-.55244.54347-.22738.32578-.31798.73931l-.0024.011q-.09059.41353-.02145.81005.06915.39651.27462.72466.20668.32264.53676.55675.33008.2341.75464.32711.2812.0616.51813.0615.23572.005.44252-.0417.21351-.0514.40119-.14324.18768-.0918.37158-.21906z"/>
   <path d="m34.009 165.59.0068-.009q.1828-.2439.24593-.50695.07103-.26419.02128-.5272-.04524-.25963-.21352-.50567-.16038-.24718-.44493-.46044l-1.2918-.96817-2.3696 3.1617.69556.52132.71089-.9485.52845.39607q.26648.19973.54761.30462.28903.10377.5656.0924.28109-.008.53618-.14129.25509-.13329.46158-.40881zm-.71475-.51454q-.15233.20325-.40181.23494-.24609.0272-.50806-.16917l-.55103-.41299.72443-.96656.53748.40283q.26197.19635.31962.43001.06217.23704-.11386.47191z"/>
  </g>
 </g>
</svg>